<?xml version="1.0" encoding="utf-8"?>
<svg id="master-artboard" viewBox="0 0 633.109375 117.019287109375" version="1.1" xmlns="http://www.w3.org/2000/svg" x="0px" y="0px" style="enable-background:new 0 0 336 235.2;" width="633.109375px" height="117.019287109375px" xmlns:xlink="http://www.w3.org/1999/xlink"><rect id="ee-background" x="0" y="0" width="633.109375" height="117.019287109375" style="fill: white; fill-opacity: 0; pointer-events: none;"/><g transform="matrix(1.2760417461395264, 0, 0, 1.2760417461395264, -336.1806640625, -431.50104904174805)"><metadata id="metadata120851">
    
  </metadata><linearGradient spreadMethod="pad" y2="30%" x2="-10%" y1="120%" x1="30%" id="3d_gradient2-logo-a89dcfa6-6321-4a1f-ad48-e5d624943057">
    <stop id="stop120826" stop-opacity="1" stop-color="#ffffff" offset="0%"/>
    <stop id="stop120828" stop-opacity="1" stop-color="#000000" offset="100%"/>
  </linearGradient><linearGradient gradientTransform="rotate(-30)" spreadMethod="pad" y2="30%" x2="-10%" y1="120%" x1="30%" id="3d_gradient3-logo-a89dcfa6-6321-4a1f-ad48-e5d624943057">
    <stop id="stop120831" stop-opacity="1" stop-color="#ffffff" offset="0%"/>
    <stop id="stop120833" stop-opacity="1" stop-color="#cccccc" offset="50%"/>
    <stop id="stop120835" stop-opacity="1" stop-color="#000000" offset="100%"/>
  </linearGradient><g id="logo-group">
    <image id="container" x="272" y="144" width="480" height="480" style="display: none;" transform="translate(0 0)" xlink:href=""/>
    <g id="logo-center" transform="translate(5.684341886080802e-14 0)">
      <image id="icon_container" x="0" y="0" style="display: none;" xlink:href=""/>
      <g id="slogan" style="font-style:oblique;font-weight:normal;font-size:32px;line-height:1;font-family:'Cormorant Infant';font-variant-ligatures:none;text-align:center;text-anchor:middle" transform="translate(0 0)"/>
      <g id="title" style="font-style:normal;font-weight:normal;font-size:72px;line-height:1;font-family:'Brandmark Sans 48';font-variant-ligatures:normal;text-align:center;text-anchor:middle" transform="translate(0 0)">
        <path id="path120854" style="font-style:normal;font-weight:normal;font-size:72px;line-height:1;font-family:'Brandmark Sans 48';font-variant-ligatures:normal;text-align:center;text-anchor:middle" d="m 385.68219,-51.264 c -9.216,0 -16.416,4.968 -16.416,11.232 0,7.056 7.344,11.592 14.688,15.912 6.84,4.032 13.536,8.208 13.536,14.184 0,5.472 -4.464,9.792 -10.152,9.792 -7.056,0.216 -13.536,-2.592 -17.856,-7.848 l -0.72,0.576 c 4.464,5.4 11.376,8.352 18.576,8.136 9.288,0 16.344,-5.688 16.344,-13.104 0,-6.84 -8.28,-12.168 -15.912,-16.776 -6.696,-4.032 -12.744,-7.848 -12.744,-12.24 0,-5.256 4.392,-9 10.656,-9 5.184,0 10.944,2.88 10.944,5.472 0,0.72 -0.36,1.152 -0.792,1.584 -0.504,0.504 -1.008,1.08 -1.008,2.304 0,1.728 1.728,3.312 3.528,3.312 2.088,0 3.816,-1.728 3.816,-3.96 0,-5.4 -7.2,-9.576 -16.488,-9.576 z" stroke-width="0" stroke-linejoin="miter" stroke-miterlimit="2" fill="#16203e" stroke="#16203e" transform="translate(0 325.94165173000005) translate(266.2476749 13.602560000000004) scale(1.71) translate(-368.76219 51.264)"/>
        <path id="path120856" style="font-style:normal;font-weight:normal;font-size:72px;line-height:1;font-family:'Brandmark Sans 48';font-variant-ligatures:normal;text-align:center;text-anchor:middle" d="m 407.60619,-50.4 20.448,50.4 h 1.152 l 2.664,-7.344 -17.424,-43.056 z m 23.76,0 7.992,19.728 -5.616,15.768 0.432,1.008 5.616,-15.768 12.024,29.664 h 1.152 l 2.664,-7.344 -12.672,-31.248 4.248,-11.808 h -0.792 l -3.816,10.8 -4.392,-10.8 z m 26.136,35.496 0.432,1.008 13.032,-36.504 h -0.792 z" stroke-width="0" stroke-linejoin="miter" stroke-miterlimit="2" fill="#2c3041" stroke="#2c3041" transform="translate(0 325.94165173000005) translate(332.67091490000007 15.080000000000005) scale(1.71) translate(-407.60619 50.4)"/>
        <path id="path120858" style="font-style:normal;font-weight:normal;font-size:72px;line-height:1;font-family:'Brandmark Sans 48';font-variant-ligatures:normal;text-align:center;text-anchor:middle" d="m 496.68819,0.72 c 7.632,0 16.776,-6.696 16.776,-18.432 V -50.4 h -0.72 v 32.688 c 0,11.376 -8.784,17.712 -15.408,17.712 -8.784,0 -14.112,-8.28 -14.112,-17.064 V -50.4 h -6.552 v 32.688 c 0,11.52 9.72,18.432 20.016,18.432 z" stroke-width="0" stroke-linejoin="miter" stroke-miterlimit="2" fill="#413f44" stroke="#413f44" transform="translate(0 325.94165173000005) translate(450.7737749 15.080000000000005) scale(1.71) translate(-476.67219 50.4)"/>
        <path id="path120860" style="font-style:normal;font-weight:normal;font-size:72px;line-height:1;font-family:'Brandmark Sans 48';font-variant-ligatures:normal;text-align:center;text-anchor:middle" d="M 523.65781,-50.4 V 0 h 6.48 v -50.4 z" stroke-width="0" stroke-linejoin="miter" stroke-miterlimit="2" fill="#574f46" stroke="#574f46" transform="translate(0 325.94165173000005) translate(531.1191851 15.080000000000005) scale(1.71) translate(-523.65781 50.4)"/>
        <path id="path120862" style="font-style:normal;font-weight:normal;font-size:72px;line-height:1;font-family:'Brandmark Sans 48';font-variant-ligatures:normal;text-align:center;text-anchor:middle" d="m 614.17869,-50.4 h -78.408 v 0.72 h 16.56 V 0 h 6.48 v -49.68 h 55.368 z M 580.98669,0 h 33.192 v -0.72 h -26.712 V -46.8 h -6.48 z m 12.24,-25.56 h 15.912 v -0.72 h -15.912 z" stroke-width="0" stroke-linejoin="miter" stroke-miterlimit="2" fill="#6c5e49" stroke="#6c5e49" transform="translate(0 325.94165173000005) translate(551.8322098999997 15.080000000000005) scale(1.71) translate(-535.77069 50.4)"/>
        <path id="path120864" style="font-style:normal;font-weight:normal;font-size:72px;line-height:1;font-family:'Brandmark Sans 48';font-variant-ligatures:normal;text-align:center;text-anchor:middle" d="m 634.01581,-24.336 h -2.88 c 3.384,1.008 7.344,8.136 10.728,14.328 l 2.808,5.184 c 1.8,3.384 4.392,4.824 8.136,4.824 h 3.384 c -3.96,-3.024 -7.56,-9.72 -10.44,-15.12 l -2.376,-4.392 c -1.44,-2.592 -3.312,-4.104 -5.904,-4.608 11.016,-0.936 15.624,-6.552 15.624,-12.888 0,-7.056 -5.544,-13.392 -16.344,-13.392 h -2.736 c 8.424,0 12.24,6.48 12.24,13.176 0,6.696 -3.816,12.888 -12.24,12.888 z M 620.40781,0 h 6.48 v -50.4 h -6.48 z" stroke-width="0" stroke-linejoin="miter" stroke-miterlimit="2" fill="#826e4c" stroke="#826e4c" transform="translate(0 325.94165173000005) translate(696.5616850999999 15.080000000000005) scale(1.71) translate(-620.40781 50.4)"/>
      </g>
      <image id="icon" x="0" y="0" style="display: none;" xlink:href=""/>
    </g>
  </g></g></svg>